PathFileType	4	(X/Y/Z)	D:\MotionData\NordSprintingStudy\Test 2\Edited\JustTheBoards000001.trc
DataRate	CameraRate	NumFrames	NumMarkers	Units	OrigDataRate	OrigDataStartFrame	OrigNumFrames
200.00	200.00	       67	5	mm	200.00	79	       624
Frame#	Time	M1			M2			M3			M4			M5			
		X1	Y1	Z1	X2	Y2	Z2	X3	Y3	Z3	X4	Y4	Z4	X5	Y5	Z5	

79	0.390	916.97296	1916.82751	47.55283	900.98987	2236.81152	59.05940	1100.58069	2247.50562	58.13816	1500.11865	2267.95435	58.61274	1515.87415	1946.82483	47.55890	
80	0.395	916.97137	1916.81750	47.58230	900.95416	2236.83325	59.06924	1100.71948	2247.58252	57.97158	1500.12109	2267.97778	58.59019	1515.88306	1946.82361	47.58086	
81	0.400	917.01459	1916.83252	47.52540	901.00952	2236.83887	58.99457	1100.66882	2247.55957	58.04675	1500.08838	2267.97192	58.64195	1515.93640	1946.83203	47.54185	
82	0.405	917.01648	1916.83618	47.52849	901.01587	2236.84888	59.04047	1100.59717	2247.52710	58.13200	1500.20264	2267.99048	58.49741	1515.92456	1946.83008	47.54684	
83	0.410	916.99200	1916.82349	47.58571	901.04260	2236.85913	59.01823	1100.71155	2247.58154	58.00011	1500.23938	2267.98364	58.47918	1515.90955	1946.83020	47.55256	
84	0.415	917.09204	1916.84863	47.47198	901.11853	2236.88892	58.93877	1100.76697	2247.57568	57.96194	1500.18713	2267.97656	58.57459	1516.01453	1946.83008	47.45962	
85	0.420	917.11737	1916.83679	47.45192	901.09833	2236.89233	58.97123	1100.72888	2247.56030	58.01917	1500.34375	2268.01416	58.44087	1516.03247	1946.83557	47.48537	
86	0.425	917.10400	1916.85583	47.49421	901.13123	2236.88062	58.98154	1100.86633	2247.61060	57.90279	1500.40308	2268.02612	58.38119	1516.00146	1946.83325	47.50251	
87	0.430	917.22034	1916.87122	47.36121	901.15320	2236.86133	58.88233	1100.86499	2247.60693	57.87785	1500.31750	2267.98706	58.46073	1516.12012	1946.85889	47.40975	
88	0.435	917.21594	1916.85596	47.37910	901.19647	2236.87451	58.89717	1100.83691	2247.59839	57.94003	1500.45679	2268.01758	58.38791	1516.12854	1946.85266	47.42220	
89	0.440	917.19312	1916.87622	47.39924	901.17065	2236.86377	58.92763	1100.95630	2247.64233	57.82240	1500.49231	2268.02295	58.34220	1516.09973	1946.85828	47.42775	
90	0.445	917.25928	1916.89172	47.30243	901.22559	2236.88843	58.82337	1100.93433	2247.62744	57.84258	1500.54968	2268.04492	58.29240	1516.18018	1946.89197	47.35763	
91	0.450	917.29327	1916.88684	47.29922	901.19800	2236.91504	58.86764	1100.87952	2247.60449	57.83136	1500.53223	2268.06592	58.28861	1516.17505	1946.87341	47.35711	
92	0.455	917.22626	1916.87622	47.38625	901.21771	2236.92310	58.86944	1100.95557	2247.63525	57.80645	1500.58252	2268.05737	58.25921	1516.13025	1946.87305	47.41950	
93	0.460	917.27026	1916.89490	47.30262	901.25171	2236.90942	58.76226	1100.95276	2247.63525	57.79272	1500.41113	2268.01416	58.40966	1516.18945	1946.88953	47.32615	
94	0.465	917.25916	1916.88867	47.29972	901.15356	2236.82910	58.90353	1100.86743	2247.61230	57.85941	1500.47937	2268.02124	58.30720	1516.15393	1946.88818	47.36727	
95	0.470	917.19708	1916.88428	47.36691	901.15381	2236.89722	58.89392	1100.91040	2247.63110	57.81636	1500.51978	2268.08594	58.27598	1516.09131	1946.85364	47.40835	
96	0.475	917.22375	1916.88818	47.33570	901.21936	2236.93970	58.82702	1100.85376	2247.60352	57.90871	1500.45728	2268.02783	58.28743	1516.12378	1946.88806	47.38118	
97	0.480	917.14185	1916.87415	47.42603	901.13196	2236.89038	58.91216	1100.85706	2247.60986	57.87561	1500.40771	2268.03906	58.35838	1516.03162	1946.85547	47.45255	
98	0.485	917.15857	1916.88098	47.37501	901.04095	2236.88110	59.00383	1100.80261	2247.60596	57.89749	1500.31042	2268.01758	58.43691	1516.05652	1946.84265	47.41702	
99	0.490	917.10437	1916.86072	47.42738	901.09125	2236.87109	58.94838	1100.78259	2247.60181	57.90069	1500.28882	2268.00244	58.44442	1515.98352	1946.84204	47.46634	
100	0.495	917.04193	1916.86646	47.47842	901.01263	2236.85693	59.01447	1100.71692	2247.57959	57.96471	1500.28381	2268.02612	58.47998	1515.89709	1946.82727	47.54254	
101	0.500	917.02698	1916.82019	47.47442	901.03839	2236.87793	58.97411	1100.67456	2247.57593	58.00100	1500.17651	2267.95972	58.52632	1515.94153	1946.82019	47.50490	
102	0.505	916.96631	1916.83240	47.58827	901.02802	2236.86792	58.97344	1100.66797	2247.56055	58.00221	1500.14575	2267.95386	58.54982	1515.90479	1946.81897	47.53609	
103	0.510	916.98651	1916.81677	47.52925	901.04742	2236.84937	58.97267	1100.63660	2247.56934	58.06037	1500.04541	2267.92407	58.66238	1515.90320	1946.80823	47.55714	
104	0.515	916.96021	1916.81287	47.54864	900.95856	2236.85767	59.08463	1100.61584	2247.53638	58.09870	1500.13013	2267.91968	58.59233	1515.86853	1946.81628	47.56686	
105	0.520	916.98999	1916.82507	47.56556	900.89227	2236.87451	59.16224	1100.61475	2247.55249	58.10092	1500.14441	2267.94849	58.60225	1515.81555	1946.78711	47.63805	
106	0.525	916.96790	1916.82666	47.61035	900.96210	2236.86694	59.10755	1100.54468	2247.52002	58.18836	1500.15076	2267.94751	58.59481	1515.88623	1946.78564	47.60649	
107	0.530	916.93719	1916.84375	47.65466	900.95270	2236.85083	59.14595	1100.67346	2247.55298	58.11744	1500.19580	2267.94849	58.59008	1515.83655	1946.80505	47.66819	
108	0.535	917.02570	1916.82959	47.56598	901.07568	2236.82471	59.00631	1100.61646	2247.54834	58.17050	1500.21912	2267.94604	58.54906	1515.92847	1946.81287	47.57946	
109	0.540	917.00885	1916.82471	47.58779	900.99835	2236.87134	59.08882	1100.68311	2247.57153	58.05141	1500.25049	2267.98218	58.50971	1515.90955	1946.80896	47.60149	
110	0.545	917.07318	1916.81018	47.54264	901.10504	2236.89063	58.95879	1100.67517	2247.54370	58.09726	1500.30359	2267.95703	58.50541	1515.99023	1946.81262	47.52692	
111	0.550	917.08514	1916.84106	47.52039	901.07709	2236.84131	59.03454	1100.77600	2247.57666	58.00153	1500.34058	2267.99927	58.43473	1515.98035	1946.81885	47.55097	
112	0.555	917.16248	1916.84558	47.42371	901.12891	2236.84351	58.94856	1100.84839	2247.59521	57.92091	1500.30750	2267.97510	58.52324	1516.10461	1946.84229	47.41253	
113	0.560	917.17065	1916.85095	47.38960	901.11774	2236.86548	58.94264	1100.84888	2247.62598	57.86201	1500.42151	2268.02832	58.37101	1516.08240	1946.85046	47.43344	
114	0.565	917.15613	1916.85303	47.43798	901.14117	2236.88208	58.90022	1100.90308	2247.60498	57.81515	1500.52075	2268.06226	58.31484	1516.07727	1946.84192	47.46832	
115	0.570	917.25360	1916.89441	47.31040	901.24402	2236.88135	58.80022	1100.91907	2247.61597	57.80330	1500.39636	2267.99146	58.40111	1516.18335	1946.87683	47.34127	
116	0.575	917.24194	1916.88928	47.30882	901.17981	2236.88916	58.80997	1100.85571	2247.62036	57.90009	1500.54407	2268.06030	58.24688	1516.16455	1946.87000	47.34617	
117	0.580	917.26282	1916.89392	47.31659	901.20593	2236.90137	58.86241	1101.00427	2247.63354	57.72477	1500.45691	2268.04321	58.33928	1516.16846	1946.88245	47.34591	
118	0.585	917.28632	1916.90771	47.25151	901.11969	2236.90308	58.92650	1100.92065	2247.61670	57.81634	1500.46594	2268.07422	58.33426	1516.15027	1946.88428	47.34132	
119	0.590	917.24176	1916.90271	47.30685	901.16394	2236.85229	58.83755	1100.89575	2247.63110	57.79916	1500.52393	2268.13257	58.21957	1516.14490	1946.91028	47.33501	
120	0.595	917.17609	1916.88025	47.39356	901.18127	2236.93457	58.86890	1100.92883	2247.64404	57.80479	1500.51611	2268.08179	58.30726	1516.09033	1946.88501	47.43753	
121	0.600	917.21722	1916.89197	47.30636	901.20471	2236.88770	58.83463	1100.91870	2247.63086	57.82869	1500.39404	2268.02148	58.41532	1516.14124	1946.90332	47.32794	
122	0.605	917.17004	1916.88452	47.37372	901.15161	2236.90845	58.86311	1100.85010	2247.63013	57.87349	1500.42310	2268.03564	58.38569	1516.08911	1946.88782	47.39109	
123	0.610	917.13904	1916.87537	47.39825	901.11023	2236.86768	58.95446	1100.82227	2247.58643	57.87997	1500.35974	2268.02466	58.41333	1516.01672	1946.86975	47.46009	
124	0.615	917.14960	1916.84875	47.42241	901.08783	2236.85742	58.95626	1100.80176	2247.59863	57.92292	1500.34692	2268.01123	58.41202	1516.02649	1946.84009	47.45661	
125	0.620	917.13037	1916.84436	47.39617	901.05109	2236.88745	59.02650	1100.77136	2247.58130	57.97879	1500.27209	2268.00293	58.48515	1515.98450	1946.84656	47.47391	
126	0.625	917.08978	1916.83862	47.47364	901.07788	2236.85669	58.97340	1100.69006	2247.54785	58.08242	1500.33643	2267.99707	58.37312	1515.98560	1946.83875	47.50790	
127	0.630	917.08258	1916.83240	47.47462	901.02521	2236.82715	59.03881	1100.76270	2247.53784	57.96770	1500.23816	2267.96509	58.49424	1515.95850	1946.81384	47.52580	
128	0.635	917.00684	1916.83069	47.56673	900.98895	2236.83960	59.07712	1100.70020	2247.53564	58.02172	1500.17444	2267.95801	58.56755	1515.87329	1946.79578	47.60136	
129	0.640	917.01953	1916.80542	47.56313	901.06012	2236.85132	58.99953	1100.67432	2247.54272	58.06464	1500.17627	2267.94824	58.53839	1515.92932	1946.80542	47.55902	
130	0.645	917.00293	1916.81299	47.54369	900.96735	2236.85474	59.08231	1100.65051	2247.52197	58.08803	1500.17542	2267.93164	58.60064	1515.89929	1946.81604	47.58232	
131	0.650	916.91754	1916.78918	47.69350	901.00952	2236.85107	59.06046	1100.64404	2247.51099	58.09561	1500.13171	2267.94214	58.64525	1515.85474	1946.80042	47.65239	
132	0.655	916.99426	1916.81592	47.57132	900.99036	2236.85669	59.07821	1100.63794	2247.55396	58.11159	1500.04871	2267.90649	58.70590	1515.87610	1946.80920	47.59109	
133	0.660	916.99188	1916.81372	47.62700	901.00006	2236.86841	59.09077	1100.62500	2247.52344	58.14387	1500.18945	2267.95532	58.58186	1515.87878	1946.82983	47.63184	
134	0.665	916.98389	1916.79480	47.57205	900.95648	2236.87256	59.13649	1100.65112	2247.54858	58.11271	1500.14111	2267.93140	58.65258	1515.88586	1946.82593	47.62121	
135	0.670	917.01807	1916.81409	47.55806	901.01282	2236.87549	59.09338	1100.63208	2247.55835	58.12692	1500.22949	2267.98364	58.53329	1515.92615	1946.82825	47.57909	
136	0.675	917.02106	1916.84521	47.59404	901.03979	2236.83496	59.00328	1100.73889	2247.55908	58.00841	1500.25317	2267.96802	58.56177	1515.94177	1946.83752	47.55730	
137	0.680	917.08942	1916.81873	47.48817	901.11493	2236.87451	58.97529	1100.78735	2247.58862	57.97474	1500.16553	2267.94800	58.62319	1516.01892	1946.82715	47.51191	
138	0.685	917.10809	1916.84912	47.48137	901.14276	2236.87891	58.92941	1100.81299	2247.57910	57.96592	1500.30579	2267.99805	58.50432	1516.00403	1946.83472	47.49689	
139	0.690	917.17200	1916.86145	47.42618	901.10675	2236.87671	59.00418	1100.82153	2247.54663	57.92905	1500.34460	2267.99414	58.50479	1516.04150	1946.83667	47.47638	
140	0.695	917.14020	1916.85657	47.42144	901.16144	2236.84814	58.92902	1100.81946	2247.57129	57.97951	1500.45581	2268.02783	58.38003	1516.08191	1946.86560	47.42392	
141	0.700	917.20447	1916.85229	47.41583	901.18878	2236.89941	58.89271	1100.86194	2247.59375	57.88175	1500.53259	2268.05542	58.31407	1516.08533	1946.83728	47.47139	
142	0.705	917.26752	1916.88159	47.30471	901.25159	2236.89648	58.77277	1100.93311	2247.62891	57.80536	1500.49426	2268.01221	58.32784	1516.15747	1946.88550	47.33352	
143	0.710	917.29321	1916.88721	47.27731	901.20789	2236.91797	58.82627	1100.96484	2247.63477	57.74193	1500.50769	2268.07568	58.31989	1516.18652	1946.87634	47.32934	
144	0.715	917.28033	1916.89185	47.25281	901.14905	2236.89380	58.90657	1100.94678	2247.62061	57.79654	1500.46497	2268.01709	58.34982	1516.14441	1946.85901	47.32602	
145	0.720	917.27979	1916.90955	47.25550	901.23328	2236.90308	58.76078	1100.91040	2247.63086	57.77688	1500.53735	2268.04639	58.22065	1516.20349	1946.89160	47.28252	
